<svg width="24" height="24" viewBox="0 0 24 24" fill="none" xmlns="http://www.w3.org/2000/svg">
  <defs>
    <linearGradient id="bg" x1="4" y1="2" x2="20" y2="22" gradientUnits="userSpaceOnUse">
      <stop offset="0" stop-color="#111827" />
      <stop offset="0.5" stop-color="#0B1220" />
      <stop offset="1" stop-color="#030712" />
    </linearGradient>
    <radialGradient id="glowA" cx="0" cy="0" r="1" gradientUnits="userSpaceOnUse" gradientTransform="translate(7 6) rotate(45) scale(8)">
      <stop offset="0" stop-color="#F59E0B" stop-opacity="0.35" />
      <stop offset="1" stop-color="#F59E0B" stop-opacity="0" />
    </radialGradient>
    <radialGradient id="glowB" cx="0" cy="0" r="1" gradientUnits="userSpaceOnUse" gradientTransform="translate(17 18) rotate(-30) scale(8.5)">
      <stop offset="0" stop-color="#38BDF8" stop-opacity="0.22" />
      <stop offset="1" stop-color="#38BDF8" stop-opacity="0" />
    </radialGradient>
  </defs>
  <rect x="0.75" y="0.75" width="22.5" height="22.5" rx="6" fill="url(#bg)" stroke="#FFFFFF" stroke-opacity="0.06" stroke-width="0.5" />
  <g transform="translate(0 -2.5)">
    <circle cx="7.5" cy="7.1" r="3.8" fill="url(#glowA)" />
    <circle cx="16.8" cy="16.7" r="4.1" fill="url(#glowB)" />
    <path d="M10.5 5.2C9.8 3.2 6.8 3.0 7.8 5.8C9.0 5.0 10.5 5.2 10.5 5.2Z" fill="#FFFFFF" opacity="0.96"/>
    <path d="M13.5 5.2C14.2 3.2 17.2 3.0 16.2 5.8C15.0 5.0 13.5 5.2 13.5 5.2Z" fill="#FFFFFF" opacity="0.96"/>
    <line x1="12" y1="4.5" x2="12" y2="7.2" stroke="#FFFFFF" stroke-width="1.4" stroke-linecap="round" opacity="0.96"/>
    <circle cx="12" cy="15" r="7.8" fill="#FFFFFF" opacity="0.10"/>
    <circle cx="12" cy="15" r="7.8" stroke="#FFFFFF" stroke-width="1.35" opacity="0.92"/>
    <line x1="12" y1="8.2" x2="12" y2="9.8" stroke="#FFFFFF" stroke-width="1.35" stroke-linecap="round" opacity="0.58"/>
    <line x1="12" y1="15" x2="8.4" y2="11.2" stroke="#FFFFFF" stroke-width="1.8" stroke-linecap="round"/>
    <line x1="12" y1="15" x2="15.6" y2="13.5" stroke="#FFFFFF" stroke-width="1.8" stroke-linecap="round"/>
    <circle cx="12" cy="15" r="1.25" fill="#FFFFFF"/>
  </g>
</svg>
